<svg xmlns="http://www.w3.org/2000/svg" viewBox="0 0 512 512">
  <defs>
    <linearGradient id="bg" x1="0" y1="0" x2="1" y2="1">
      <stop offset="0" stop-color="#e08a5f"/>
      <stop offset="1" stop-color="#c05f3c"/>
    </linearGradient>
  </defs>
  <rect width="512" height="512" rx="116" fill="url(#bg)"/>
  <path d="M122 384 V270 C122 194 182 134 256 134 C330 134 390 194 390 270 V384 Z" fill="#fdf6ef"/>
  <path d="M258 196 C262 238 306 268 306 316 C306 346 284 368 256 368 C228 368 206 346 206 316 C206 288 222 270 234 252 C240 262 246 268 252 270 C246 244 248 220 258 196 Z" fill="url(#bg)"/>
  <rect x="98" y="384" width="316" height="28" rx="14" fill="#fdf6ef"/>
</svg>
